<?xml version="1.0" encoding="utf-8"?>
<!-- Generator: Adobe Illustrator 28.1.0, SVG Export Plug-In . SVG Version: 6.00 Build 0)  -->
<svg version="1.1" id="Capa_1" xmlns="http://www.w3.org/2000/svg" xmlns:xlink="http://www.w3.org/1999/xlink" x="0px" y="0px"
	 width="512px" height="512px" viewBox="0 0 512 512" style="enable-background:new 0 0 512 512;" xml:space="preserve">
<style type="text/css">
	.st0{clip-path:url(#SVGID_00000045619507885153028320000002048966080807648394_);}
	.st1{fill:#FFFFFF;}
	.st2{fill:none;stroke:#000000;stroke-width:4;stroke-linecap:round;stroke-linejoin:round;stroke-miterlimit:10;}
	.st3{fill:none;stroke:#000000;stroke-width:2;stroke-linecap:round;stroke-linejoin:round;stroke-miterlimit:10;}
</style>
<g>
	<defs>
		<circle id="SVGID_1_" cx="256" cy="256" r="249"/>
	</defs>
	<clipPath id="SVGID_00000094608620417021788500000000469194922060964281_">
		<use xlink:href="#SVGID_1_"  style="overflow:visible;"/>
	</clipPath>
	<g style="clip-path:url(#SVGID_00000094608620417021788500000000469194922060964281_);">
		<circle class="st1" cx="261.976" cy="262" r="250.001"/>
		<g>
			<path d="M324.214,235.754c-0.068,1.165-0.274,2.434,0.353,3.418c0.624,0.979,1.939,1.345,3.079,1.127
				c1.409-0.27,2.598-1.298,3.296-2.551c0.698-1.253,0.953-2.711,0.988-4.146c0.085-3.492-1.205-7.134-3.932-9.317
				c-1.523-1.219-3.509-1.875-5.457-1.826c-1.588,0.04-4.165,0.454-3.114,2.52c0.873,1.713,2.719,2.877,3.592,4.738
				C323.898,231.593,324.335,233.682,324.214,235.754z"/>
			<g>
				<path d="M227.898,384.021c-16.884,0-33.477-6.887-50.728-21.056c-3.917-3.216-8.061-6.042-12.068-8.775
					c-12.516-8.535-24.337-16.598-28.349-35.486c-0.062-0.296-0.078-0.716-0.065-1.125c0.013,0.009,0.026,0.019,0.039,0.027
					c0.844,0.591,1.802,1.262,2.891,1.435c1.321,0.209,2.612,0.97,3.82,1.729c0.525,0.331,1.05,0.671,1.574,1.012
					c2.816,1.826,5.729,3.715,9.197,4.501c1.317,0.299,2.473,0.443,3.533,0.443c4.258,0,6.282-2.449,7.23-4.505
					c1.219-2.639,0.433-5.176-0.262-7.415c-0.421-1.358-0.818-2.641-0.754-3.821c0.221-4.062,6.002-9.101,9.456-12.11l0.603-0.526
					c14.547-12.725,31.812-22.423,54.336-30.521c0.066-0.023,0.133-0.052,0.196-0.082c2.282-1.108,3.938-1.726,5.032-2.134
					c1.456-0.543,2.623-0.979,2.873-2.27c4.514,1.063,9.994,2.27,13.502,2.27c0.191,0,0.376-0.003,0.555-0.011
					c7.427-0.303,14.161-6.792,20.103-12.517c0.646-0.623,1.283-1.236,1.91-1.832c7.195-6.829,11.958-14.587,13.771-22.435
					c2.689-11.635-0.956-22.771-4.488-30.063c-0.853-1.761-1.667-3.534-2.478-5.301c-3.271-7.119-6.651-14.481-12.359-20.432
					l-35.232-36.717c-3.288-3.426-6.688-6.969-10.541-10c-4.555-3.582-9.559-6.32-14.872-8.138
					c-5.297-1.811-11.044-2.729-17.08-2.729c-8.549,0-17.835,1.886-26.853,5.454c-13.79,5.455-26,14.026-37.809,22.315
					c-9.567,6.717-21.476,15.075-26.834,27.547c-3.474,8.085-3.838,16.918-3.716,25.259c0.062,4.268,0.903,10.082,1.716,15.705
					c0.597,4.124,1.208,8.356,1.33,11.021c-8.515-22.79-15.442-46.437-10.197-66.01c4.131-15.413,14.855-27.031,23.125-34.062
					c10.859-9.234,23.739-16.188,36-22.517c11.998-6.194,23.816-11.932,36.485-14.068c3.695-0.624,7.525-0.939,11.383-0.939
					c21.562,0,40.315,9.438,52.251,17.357c18.984,12.593,34.554,29.829,49.606,46.509c1.448,2.043,2.945,3.281,4.528,4.591
					c1.461,1.209,2.971,2.458,4.666,4.551c0.221,0.58,0.431,1.206,0.608,1.79c-1.875,0.028-4.072,0.616-5.688,1.521
					c-13.322,5.403-12.153,19.095-10.107,28.938l0.202,0.975c2.28,11.007,3.787,18.278,12.396,26.781
					c3.66,3.614,6.584,8.121,9.411,12.479c3.56,5.485,7.24,11.157,12.531,15.414c12.84,10.328,11.689,23.684,8.751,44.618
					c-2.709,19.295-13.079,41.323-25.22,53.568c-8.345,8.416-18.605,16.111-32.29,24.218
					C257.589,379.073,242.457,384.021,227.898,384.021z"/>
				<path d="M193.876,87.141c21.062,0,39.438,9.257,51.145,17.023c18.744,12.434,34.205,29.537,49.15,46.098
					c1.581,2.201,3.224,3.56,4.815,4.877c1.16,0.96,2.27,1.878,3.472,3.201c-1.233,0.297-2.438,0.747-3.475,1.313
					c-16.281,6.696-12.461,25.087-11.201,31.152l0.203,0.978c2.355,11.362,3.91,18.868,12.949,27.795
					c3.506,3.462,6.242,7.679,9.139,12.143c3.645,5.617,7.414,11.426,12.956,15.884c12.02,9.67,10.95,21.935,8.023,42.782
					c-2.655,18.908-12.795,40.471-24.66,52.438c-8.221,8.292-18.354,15.888-31.888,23.905c-17.611,10.432-32.42,15.29-46.605,15.29
					c-16.402,0-32.58-6.738-49.458-20.601c-3.986-3.273-8.168-6.126-12.212-8.884c-12.044-8.214-22.531-15.368-26.861-31.51
					c0.936,0.169,2.04,0.829,3.005,1.436c0.518,0.326,1.034,0.661,1.551,0.996c2.826,1.833,6.029,3.91,9.845,4.775
					c1.464,0.332,2.764,0.493,3.976,0.493c4.147,0,7.359-2.012,9.046-5.667c1.539-3.335,0.553-6.52-0.167-8.845
					c-0.366-1.182-0.712-2.299-0.668-3.122c0.174-3.219,5.982-8.28,8.774-10.712l0.605-0.528
					c14.352-12.555,31.414-22.133,53.695-30.144c0.134-0.048,0.265-0.103,0.393-0.165c2.197-1.066,3.798-1.664,4.858-2.059
					c1.043-0.389,2.329-0.869,3.207-1.849c4.287,0.986,9.138,1.975,12.468,1.975c0.221,0,0.433-0.004,0.638-0.013
					c8.185-0.333,15.209-7.101,21.407-13.073c0.643-0.62,1.277-1.23,1.901-1.823c7.481-7.1,12.441-15.204,14.344-23.435
					c2.82-12.201-0.965-23.802-4.637-31.386c-0.841-1.738-1.666-3.532-2.462-5.267c-3.339-7.269-6.791-14.786-12.733-20.978
					l-21.289-22.186l-7.991-8.328l-5.952-6.203c-3.335-3.476-6.784-7.07-10.748-10.188c-4.733-3.722-9.935-6.568-15.462-8.458
					c-5.505-1.882-11.469-2.837-17.726-2.837c-8.798,0-18.339,1.934-27.589,5.593c-14.007,5.541-26.317,14.182-38.221,22.538
					c-9.775,6.862-21.94,15.401-27.522,28.394c-3.621,8.428-4.004,17.515-3.878,26.078c0.032,2.18,0.257,4.726,0.576,7.431
					c-4.909-16.358-7.498-32.411-3.796-46.228c3.997-14.915,14.435-26.209,22.488-33.056c10.697-9.097,23.464-15.986,35.623-22.264
					c11.852-6.119,23.516-11.784,35.9-13.872C186.411,87.448,190.129,87.141,193.876,87.141 M193.876,83.141
					c-3.909,0-7.825,0.311-11.717,0.967c-13.11,2.211-25.256,8.163-37.07,14.262c-12.741,6.577-25.456,13.482-36.379,22.771
					c-10.923,9.289-20.049,21.219-23.76,35.068c-5.835,21.773,2.918,47.798,10.878,68.886c0,0,1.14,0.27,2.061,0.27
					c0.593,0,1.096-0.112,1.143-0.48c0.588-4.551-2.874-20.375-2.999-28.902c-0.122-8.295,0.279-16.818,3.554-24.44
					c4.985-11.602,15.81-19.445,26.145-26.7c11.879-8.339,23.899-16.754,37.395-22.093c8.282-3.276,17.251-5.313,26.118-5.313
					c5.583,0,11.126,0.808,16.432,2.622c5.16,1.764,9.997,4.446,14.284,7.817c3.737,2.939,7.043,6.382,10.334,9.813
					c4.648,4.843,9.295,9.687,13.943,14.53c7.096,7.395,14.193,14.791,21.289,22.186c6.84,7.128,10.176,16.328,14.481,25.219
					c4.305,8.891,6.564,19.117,4.339,28.741c-1.917,8.294-7.026,15.574-13.2,21.435c-6.174,5.86-13.291,13.498-20.717,13.8
					c-0.153,0.006-0.311,0.009-0.475,0.009c-5.651,0-17.81-3.581-19.263-3.581c-0.175,0-0.195,0.052-0.031,0.167
					c5.641,3.981,5.406,1.676-2.984,5.748c-19.925,7.164-38.672,16.636-54.976,30.898c-3.893,3.405-10.46,8.869-10.74,14.034
					c-0.199,3.674,2.739,7.166,1.197,10.506c-1.138,2.466-3.06,3.343-5.414,3.343c-0.966,0-2.005-0.148-3.092-0.394
					c-3.736-0.846-6.907-3.213-10.148-5.254c-1.419-0.894-2.916-1.75-4.572-2.013c-1.302-0.206-2.973-2.121-4.091-2.121
					c-0.305,0-0.569,0.142-0.773,0.5c-0.374,0.655-0.493,2.62-0.269,3.674c5.502,25.91,25.116,32.263,41.103,45.393
					c18.362,15.08,35.286,21.509,51.997,21.509c16.055,0,31.915-5.94,48.643-15.849c11.767-6.97,23.061-14.818,32.69-24.53
					c13.107-13.22,23.192-36.262,25.78-54.698c2.816-20.055,4.576-35.149-9.477-46.455c-9.219-7.417-13.372-19.442-21.791-27.757
					c-8.419-8.315-9.64-15.155-12.047-26.741c-2.407-11.585-1.969-22.345,9.022-26.727c1.346-0.785,3.351-1.328,4.956-1.328
					c0.83,0,1.553,0.145,2.023,0.476c0.069,0.048,0.126,0.071,0.173,0.071c0.571,0-0.428-3.426-1.194-5.349
					c-3.778-4.765-6.732-5.59-9.381-9.38c-15.367-17.029-30.951-34.247-50.065-46.926C231.406,90.333,212.686,83.141,193.876,83.141
					L193.876,83.141z"/>
			</g>
			<path class="st1" d="M176.146,314.642c-2.555,4.385,13.942,3.689,21.514,1.021c7.572-2.668,17.363-8.595,23.679-13.552
				c3.267-2.564,9.96-6.358,12.961-9.229c4.889-4.676,9.429-19.747,5.18-17.233c-20.553,12.162-30.143,18.303-43.981,25.275
				C183.86,306.788,178.711,310.239,176.146,314.642z"/>
			<path d="M147.172,232.699c-8.184-9.865-15.739-11.478-19.499-10.781c-5.934,1.099-12.73,4.79-16.297,9.658
				s-10.451,12.534-9.835,18.538c0.219,2.14,7.494,6.56,8.278,4.527c2.377-6.165,5.891-14.469,8.705-17.584
				C128.631,225.862,140.625,224.761,147.172,232.699z"/>
			<path d="M225.108,179.551c-1.46,3.619-9.322,1.67-16.955,4.585c-4.059,1.55-10.955,4.239-14.109,6.546
				c-4.062,2.971-6.938,3.961-12.502,8.371c-3.387,2.684-7.885,6.069-11.337,8.595c-4.113,3.011-5.79,5.03-7.386,5.161
				c-1.791,0.148-2.781-0.888-5.172-1.981l-0.791-0.6c1.305-2.176,2.762-4.26,4.358-6.232c8.124-10.041,19.652-16.914,31.821-21.241
				c9.892-3.517,19.971-6.425,30.229-4.188C223.264,178.567,225.303,179.067,225.108,179.551z"/>
			<path d="M209.98,207.396c0,3.27-5.617,6.488-8.888,6.488c-3.27,0-7.602-5.777-4.562-6.982c2.625-1.041,6.828-3.922,9.798-3.644
				C207.895,203.405,209.98,204.125,209.98,207.396z"/>
			<path d="M145.187,246.291c-2.312,1.762-5.761,6.096-8.69,8.287c-2.619,1.959-7.297-6.97-4.256-8.175
				c2.625-1.041,5.792-2.349,8.412-3.776C142.107,241.835,147.788,244.308,145.187,246.291z"/>
			<g>
				<path class="st2" d="M202.631,254.818c2.888,1.452,3.876,5.705,1.924,8.281c-1.232,1.627-3.206,2.519-5.14,3.172
					c-5.803,1.959-8.862,1.521-12.09,4.824c-2.728,2.791-8.252,15.44-14.529,17.275c-6.277,1.835-16.654-1.985-18.894-8.129
					c-1.415-3.879-0.721-8.162-0.172-12.254c1.355-10.099,1.629-20.793-2.686-30.023c-4.315-9.23-14.364-16.431-24.377-14.548
					c-5.931,1.116-10.98,5.178-14.547,10.046s-5.852,10.535-8.099,16.136l4.532,3.53c15.594,18.19,23.027,42.393,28.29,65.767"/>
				<path class="st2" d="M317.94,236.497c5.629,0.516,11.277-2.909,13.885-7.925s2.289-11.304-0.347-16.305
					c-0.829-1.574-1.872-3.04-2.545-4.687c-1.027-2.513-1.133-5.291-1.315-7.999c-0.387-5.754-1.191-11.538-3.22-16.936
					c-3.075-8.185-10.544-16.611-18.054-21.087"/>
				<path class="st2" d="M105.322,246.87c-0.54-7.98-3.172-15.808-7.563-22.493"/>
				<path class="st2" d="M306.344,209.443c-5.559-10.465-8.27-22.425-7.765-34.263"/>
				<path class="st2" d="M299.18,187.342c1.25,1.98,4.535,4.8,6.573,5.954c2.038,1.154,4.177,2.208,5.862,3.834
					c1.686,1.626,2.875,3.986,2.425,6.285"/>
				<path class="st2" d="M241.402,415.921c3.2-9.3-1.494-19.863-8.892-26.343s-17.015-9.726-26.399-12.666"/>
				<path class="st2" d="M335.705,268.637c5.571,7.331,11.545,14.357,17.885,21.034c7.048,7.423,17.273,15.144,26.388,19.802"/>
				<path class="st2" d="M214.682,383.336c-3.168,5.434-13.473,9.665-17.157,11.816c-5.05,2.949-12.549,7.59-21.477,14.908
					c-17.164,14.068-23.373,26.799-27.982,48.508"/>
				<path class="st2" d="M508.052,347.304c-17.383-9.017-36.48-14.119-55.403-19.155c-7.292-1.941-14.585-3.882-21.877-5.822
					c-16.951-4.511-33.292-11.141-50.243-15.652c-2.514,13.423-6.634,26.62-13.111,38.642
					c-9.758,18.112-24.486,36.525-39.006,51.099c-0.185,0.179-1.001,1.216-1.049,1.297c-9.009,12.752-20.841,21.62-35.405,27.247
					c-7.422,2.868-15.379,4.625-23.321,4.143c-7.942-0.482-19.116-4.216-24.936-9.642c-5.82-5.426-5.597-13.782-4.568-21.672"/>
				<path class="st2" d="M149.555,240.83c-6.372-0.349-12.849,2.066-17.436,6.503c-4.588,4.437-7.218,10.829-7.082,17.209"/>
				<path class="st2" d="M180.749,222.849c4.793-5.064,9.933-12.151,15.782-15.947c7.691-4.992,16.67-5.553,25.833-5.216"/>
				<path class="st2" d="M217.905,254.765c31.48,8.485,31.047,24.546,29.541,28.042"/>
			</g>
			<path class="st3" d="M186.502,207.126c7.581-6.232,18.619-11.258,28.381-10.25"/>
			<path class="st3" d="M130.719,241.967c-8.995,6.095-10.185,11.417-10.527,13.851"/>
		</g>
	</g>
</g>
</svg>
